<svg id="visual" viewBox="0 0 960 540" width="960" height="540" xmlns="http://www.w3.org/2000/svg" xmlns:xlink="http://www.w3.org/1999/xlink" version="1.1"><rect x="0" y="0" width="960" height="540" fill="#fff"></rect><path d="M0 79L13.3 79.2C26.7 79.3 53.3 79.7 80 79.5C106.7 79.3 133.3 78.7 160 76.2C186.7 73.7 213.3 69.3 240 68C266.7 66.7 293.3 68.3 320 73.3C346.7 78.3 373.3 86.7 400 90.5C426.7 94.3 453.3 93.7 480 88.3C506.7 83 533.3 73 560 73.8C586.7 74.7 613.3 86.3 640 89.3C666.7 92.3 693.3 86.7 720 86.2C746.7 85.7 773.3 90.3 800 87.7C826.7 85 853.3 75 880 74.5C906.7 74 933.3 83 946.7 87.5L960 92L960 0L946.7 0C933.3 0 906.7 0 880 0C853.3 0 826.7 0 800 0C773.3 0 746.7 0 720 0C693.3 0 666.7 0 640 0C613.3 0 586.7 0 560 0C533.3 0 506.7 0 480 0C453.3 0 426.7 0 400 0C373.3 0 346.7 0 320 0C293.3 0 266.7 0 240 0C213.3 0 186.7 0 160 0C133.3 0 106.7 0 80 0C53.3 0 26.7 0 13.3 0L0 0Z" fill="#ffffff"></path><path d="M0 77L13.3 74.8C26.7 72.7 53.3 68.3 80 69C106.7 69.7 133.3 75.3 160 78.7C186.7 82 213.3 83 240 79.7C266.7 76.3 293.3 68.7 320 68.7C346.7 68.7 373.3 76.3 400 79.8C426.7 83.3 453.3 82.7 480 80.8C506.7 79 533.3 76 560 75.3C586.7 74.7 613.3 76.3 640 71.8C666.7 67.3 693.3 56.7 720 54.2C746.7 51.7 773.3 57.3 800 60.8C826.7 64.3 853.3 65.7 880 64.8C906.7 64 933.3 61 946.7 59.5L960 58L960 0L946.7 0C933.3 0 906.7 0 880 0C853.3 0 826.7 0 800 0C773.3 0 746.7 0 720 0C693.3 0 666.7 0 640 0C613.3 0 586.7 0 560 0C533.3 0 506.7 0 480 0C453.3 0 426.7 0 400 0C373.3 0 346.7 0 320 0C293.3 0 266.7 0 240 0C213.3 0 186.7 0 160 0C133.3 0 106.7 0 80 0C53.3 0 26.7 0 13.3 0L0 0Z" fill="#c4bece"></path><path d="M0 55L13.3 55C26.7 55 53.3 55 80 51.8C106.7 48.7 133.3 42.3 160 40.8C186.7 39.3 213.3 42.7 240 47.8C266.7 53 293.3 60 320 60.7C346.7 61.3 373.3 55.7 400 49.7C426.7 43.7 453.3 37.3 480 38.5C506.7 39.7 533.3 48.3 560 51.2C586.7 54 613.3 51 640 51.7C666.7 52.3 693.3 56.7 720 57.3C746.7 58 773.3 55 800 50.3C826.7 45.7 853.3 39.3 880 41.3C906.7 43.3 933.3 53.7 946.7 58.8L960 64L960 0L946.7 0C933.3 0 906.7 0 880 0C853.3 0 826.7 0 800 0C773.3 0 746.7 0 720 0C693.3 0 666.7 0 640 0C613.3 0 586.7 0 560 0C533.3 0 506.7 0 480 0C453.3 0 426.7 0 400 0C373.3 0 346.7 0 320 0C293.3 0 266.7 0 240 0C213.3 0 186.7 0 160 0C133.3 0 106.7 0 80 0C53.3 0 26.7 0 13.3 0L0 0Z" fill="#8c809e"></path><path d="M0 44L13.3 42.5C26.7 41 53.3 38 80 38.5C106.7 39 133.3 43 160 44.3C186.7 45.7 213.3 44.3 240 44C266.7 43.7 293.3 44.3 320 43.2C346.7 42 373.3 39 400 34.7C426.7 30.3 453.3 24.7 480 25C506.7 25.3 533.3 31.7 560 34.3C586.7 37 613.3 36 640 37.5C666.7 39 693.3 43 720 44.2C746.7 45.3 773.3 43.7 800 44.3C826.7 45 853.3 48 880 43.7C906.7 39.3 933.3 27.7 946.7 21.8L960 16L960 0L946.7 0C933.3 0 906.7 0 880 0C853.3 0 826.7 0 800 0C773.3 0 746.7 0 720 0C693.3 0 666.7 0 640 0C613.3 0 586.7 0 560 0C533.3 0 506.7 0 480 0C453.3 0 426.7 0 400 0C373.3 0 346.7 0 320 0C293.3 0 266.7 0 240 0C213.3 0 186.7 0 160 0C133.3 0 106.7 0 80 0C53.3 0 26.7 0 13.3 0L0 0Z" fill="#574771"></path><path d="M0 7L13.3 10C26.7 13 53.3 19 80 22.8C106.7 26.7 133.3 28.3 160 26.7C186.7 25 213.3 20 240 18.8C266.7 17.7 293.3 20.3 320 21.8C346.7 23.3 373.3 23.7 400 21.8C426.7 20 453.3 16 480 14C506.7 12 533.3 12 560 10.8C586.7 9.7 613.3 7.3 640 8.3C666.7 9.3 693.3 13.7 720 16C746.7 18.3 773.3 18.7 800 19C826.7 19.3 853.3 19.7 880 21.8C906.7 24 933.3 28 946.7 30L960 32L960 0L946.7 0C933.3 0 906.7 0 880 0C853.3 0 826.7 0 800 0C773.3 0 746.7 0 720 0C693.3 0 666.7 0 640 0C613.3 0 586.7 0 560 0C533.3 0 506.7 0 480 0C453.3 0 426.7 0 400 0C373.3 0 346.7 0 320 0C293.3 0 266.7 0 240 0C213.3 0 186.7 0 160 0C133.3 0 106.7 0 80 0C53.3 0 26.7 0 13.3 0L0 0Z" fill="#231446"></path></svg>