<svg id="visual" viewBox="0 0 900 600" width="900" height="600" xmlns="http://www.w3.org/2000/svg" xmlns:xlink="http://www.w3.org/1999/xlink" version="1.1"><rect x="0" y="0" width="900" height="600" fill="#ffffff"></rect><defs><linearGradient id="grad1_0" x1="33.3%" y1="0%" x2="100%" y2="100%"><stop offset="20%" stop-color="#3c81fa" stop-opacity="1"></stop><stop offset="80%" stop-color="#3c81fa" stop-opacity="1"></stop></linearGradient></defs><defs><linearGradient id="grad1_1" x1="33.3%" y1="0%" x2="100%" y2="100%"><stop offset="20%" stop-color="#3c81fa" stop-opacity="1"></stop><stop offset="80%" stop-color="#92a8fd" stop-opacity="1"></stop></linearGradient></defs><defs><linearGradient id="grad1_2" x1="33.3%" y1="0%" x2="100%" y2="100%"><stop offset="20%" stop-color="#ccd3ff" stop-opacity="1"></stop><stop offset="80%" stop-color="#92a8fd" stop-opacity="1"></stop></linearGradient></defs><defs><linearGradient id="grad1_3" x1="33.3%" y1="0%" x2="100%" y2="100%"><stop offset="20%" stop-color="#ccd3ff" stop-opacity="1"></stop><stop offset="80%" stop-color="#ffffff" stop-opacity="1"></stop></linearGradient></defs><defs><linearGradient id="grad2_0" x1="0%" y1="0%" x2="66.7%" y2="100%"><stop offset="20%" stop-color="#3c81fa" stop-opacity="1"></stop><stop offset="80%" stop-color="#3c81fa" stop-opacity="1"></stop></linearGradient></defs><defs><linearGradient id="grad2_1" x1="0%" y1="0%" x2="66.7%" y2="100%"><stop offset="20%" stop-color="#92a8fd" stop-opacity="1"></stop><stop offset="80%" stop-color="#3c81fa" stop-opacity="1"></stop></linearGradient></defs><defs><linearGradient id="grad2_2" x1="0%" y1="0%" x2="66.7%" y2="100%"><stop offset="20%" stop-color="#92a8fd" stop-opacity="1"></stop><stop offset="80%" stop-color="#ccd3ff" stop-opacity="1"></stop></linearGradient></defs><defs><linearGradient id="grad2_3" x1="0%" y1="0%" x2="66.7%" y2="100%"><stop offset="20%" stop-color="#ffffff" stop-opacity="1"></stop><stop offset="80%" stop-color="#ccd3ff" stop-opacity="1"></stop></linearGradient></defs><g transform="translate(900, 0)"><path d="M0 486.7C-20.5 422 -40.9 357.3 -69.3 348.2C-97.6 339.1 -133.7 385.6 -163.4 394.5C-193.1 403.4 -216.3 374.7 -233.3 349.2C-250.4 323.7 -261.2 301.3 -285.7 285.7C-310.1 270 -348.2 261.2 -353.4 236.1C-358.6 211.1 -330.9 169.9 -352.9 146.2C-375 122.5 -446.8 116.4 -477.4 95C-508 73.5 -497.4 36.8 -486.7 0L0 0Z" fill="#e6e9ff"></path><path d="M0 365.1C-15.4 316.5 -30.7 268 -51.9 261.1C-73.2 254.3 -100.3 289.2 -122.6 295.9C-144.8 302.6 -162.2 281.1 -175 261.9C-187.8 242.8 -195.9 226 -214.3 214.3C-232.6 202.5 -261.1 195.9 -265 177.1C-268.9 158.3 -248.1 127.4 -264.7 109.6C-281.2 91.9 -335.1 87.3 -358 71.2C-381 55.1 -373 27.6 -365.1 0L0 0Z" fill="#b0bdfe"></path><path d="M0 243.4C-10.2 211 -20.5 178.6 -34.6 174.1C-48.8 169.5 -66.9 192.8 -81.7 197.2C-96.5 201.7 -108.2 187.4 -116.7 174.6C-125.2 161.8 -130.6 150.7 -142.8 142.8C-155.1 135 -174.1 130.6 -176.7 118.1C-179.3 105.5 -165.4 84.9 -176.5 73.1C-187.5 61.3 -223.4 58.2 -238.7 47.5C-254 36.8 -248.7 18.4 -243.4 0L0 0Z" fill="#6e94fc"></path><path d="M0 121.7C-5.1 105.5 -10.2 89.3 -17.3 87C-24.4 84.8 -33.4 96.4 -40.9 98.6C-48.3 100.9 -54.1 93.7 -58.3 87.3C-62.6 80.9 -65.3 75.3 -71.4 71.4C-77.5 67.5 -87 65.3 -88.3 59C-89.6 52.8 -82.7 42.5 -88.2 36.5C-93.7 30.6 -111.7 29.1 -119.3 23.7C-127 18.4 -124.3 9.2 -121.7 0L0 0Z" fill="#3c81fa"></path></g><g transform="translate(0, 600)"><path d="M0 -486.7C30.1 -471.6 60.1 -456.4 87.2 -438.4C114.3 -420.4 138.3 -399.6 157.3 -379.7C176.2 -359.8 190 -340.8 228.9 -342.6C267.8 -344.3 331.7 -366.7 344.2 -344.2C356.6 -321.7 317.6 -254.2 336.7 -225C355.9 -195.8 433.2 -204.8 446.2 -184.8C459.3 -164.9 408 -116 404.1 -80.4C400.1 -44.7 443.4 -22.4 486.7 0L0 0Z" fill="#e6e9ff"></path><path d="M0 -365.1C22.6 -353.7 45.1 -342.3 65.4 -328.8C85.7 -315.3 103.8 -299.7 118 -284.8C132.2 -269.9 142.5 -255.6 171.7 -256.9C200.8 -258.2 248.8 -275 258.1 -258.1C267.5 -241.3 238.2 -190.7 252.6 -168.8C266.9 -146.8 324.9 -153.6 334.7 -138.6C344.5 -123.7 306 -87 303.1 -60.3C300.1 -33.6 332.6 -16.8 365.1 0L0 0Z" fill="#b0bdfe"></path><path d="M0 -243.4C15 -235.8 30.1 -228.2 43.6 -219.2C57.1 -210.2 69.2 -199.8 78.6 -189.9C88.1 -179.9 95 -170.4 114.4 -171.3C133.9 -172.1 165.9 -183.3 172.1 -172.1C178.3 -160.8 158.8 -127.1 168.4 -112.5C177.9 -97.9 216.6 -102.4 223.1 -92.4C229.6 -82.4 204 -58 202 -40.2C200.1 -22.4 221.7 -11.2 243.4 0L0 0Z" fill="#6e94fc"></path><path d="M0 -121.7C7.5 -117.9 15 -114.1 21.8 -109.6C28.6 -105.1 34.6 -99.9 39.3 -94.9C44.1 -90 47.5 -85.2 57.2 -85.6C66.9 -86.1 82.9 -91.7 86 -86C89.2 -80.4 79.4 -63.6 84.2 -56.3C89 -48.9 108.3 -51.2 111.6 -46.2C114.8 -41.2 102 -29 101 -20.1C100 -11.2 110.9 -5.6 121.7 0L0 0Z" fill="#3c81fa"></path></g></svg>