<svg id="visual" viewBox="0 0 900 600" width="900" height="600" xmlns="http://www.w3.org/2000/svg" xmlns:xlink="http://www.w3.org/1999/xlink" version="1.1"><rect x="0" y="0" width="900" height="600" fill="#ffffff"></rect><defs><linearGradient id="grad1_0" x1="33.3%" y1="0%" x2="100%" y2="100%"><stop offset="20%" stop-color="#3c81fa" stop-opacity="1"></stop><stop offset="80%" stop-color="#3c81fa" stop-opacity="1"></stop></linearGradient></defs><defs><linearGradient id="grad1_1" x1="33.3%" y1="0%" x2="100%" y2="100%"><stop offset="20%" stop-color="#3c81fa" stop-opacity="1"></stop><stop offset="80%" stop-color="#92a8fd" stop-opacity="1"></stop></linearGradient></defs><defs><linearGradient id="grad1_2" x1="33.3%" y1="0%" x2="100%" y2="100%"><stop offset="20%" stop-color="#ccd3ff" stop-opacity="1"></stop><stop offset="80%" stop-color="#92a8fd" stop-opacity="1"></stop></linearGradient></defs><defs><linearGradient id="grad1_3" x1="33.3%" y1="0%" x2="100%" y2="100%"><stop offset="20%" stop-color="#ccd3ff" stop-opacity="1"></stop><stop offset="80%" stop-color="#ffffff" stop-opacity="1"></stop></linearGradient></defs><defs><linearGradient id="grad2_0" x1="0%" y1="0%" x2="66.7%" y2="100%"><stop offset="20%" stop-color="#3c81fa" stop-opacity="1"></stop><stop offset="80%" stop-color="#3c81fa" stop-opacity="1"></stop></linearGradient></defs><defs><linearGradient id="grad2_1" x1="0%" y1="0%" x2="66.7%" y2="100%"><stop offset="20%" stop-color="#92a8fd" stop-opacity="1"></stop><stop offset="80%" stop-color="#3c81fa" stop-opacity="1"></stop></linearGradient></defs><defs><linearGradient id="grad2_2" x1="0%" y1="0%" x2="66.7%" y2="100%"><stop offset="20%" stop-color="#92a8fd" stop-opacity="1"></stop><stop offset="80%" stop-color="#ccd3ff" stop-opacity="1"></stop></linearGradient></defs><defs><linearGradient id="grad2_3" x1="0%" y1="0%" x2="66.7%" y2="100%"><stop offset="20%" stop-color="#ffffff" stop-opacity="1"></stop><stop offset="80%" stop-color="#ccd3ff" stop-opacity="1"></stop></linearGradient></defs><g transform="translate(900, 0)"><path d="M0 486.7C-45.6 468.8 -91.3 450.9 -143.1 440.3C-194.9 429.8 -252.8 426.7 -286.1 393.8C-319.4 360.9 -328 298.1 -346.3 251.6C-364.5 205.1 -392.5 174.9 -417.5 135.7C-442.5 96.4 -464.6 48.2 -486.7 0L0 0Z" fill="#e6e9ff"></path><path d="M0 365.1C-34.2 351.6 -68.5 338.1 -107.3 330.3C-146.2 322.4 -189.6 320 -214.6 295.3C-239.5 270.6 -246 223.5 -259.7 188.7C-273.4 153.8 -294.4 131.2 -313.1 101.7C-331.9 72.3 -348.5 36.2 -365.1 0L0 0Z" fill="#b0bdfe"></path><path d="M0 243.4C-22.8 234.4 -45.6 225.4 -71.5 220.2C-97.4 214.9 -126.4 213.4 -143.1 196.9C-159.7 180.4 -164 149 -173.1 125.8C-182.3 102.5 -196.2 87.4 -208.8 67.8C-221.3 48.2 -232.3 24.1 -243.4 0L0 0Z" fill="#6e94fc"></path><path d="M0 121.7C-11.4 117.2 -22.8 112.7 -35.8 110.1C-48.7 107.5 -63.2 106.7 -71.5 98.4C-79.8 90.2 -82 74.5 -86.6 62.9C-91.1 51.3 -98.1 43.7 -104.4 33.9C-110.6 24.1 -116.2 12.1 -121.7 0L0 0Z" fill="#3c81fa"></path></g><g transform="translate(0, 600)"><path d="M0 -486.7C46.3 -470 92.5 -453.2 143.7 -442.2C194.9 -431.3 251 -426.1 286.1 -393.8C321.2 -361.5 335.3 -301.9 350.3 -254.5C365.3 -207.1 381.3 -171.7 404.2 -131.3C427.1 -90.9 456.9 -45.5 486.7 0L0 0Z" fill="#e6e9ff"></path><path d="M0 -365.1C34.7 -352.5 69.4 -339.9 107.8 -331.7C146.2 -323.5 188.3 -319.6 214.6 -295.3C240.9 -271.1 251.5 -226.5 262.7 -190.9C274 -155.3 286 -128.8 303.1 -98.5C320.3 -68.2 342.7 -34.1 365.1 0L0 0Z" fill="#b0bdfe"></path><path d="M0 -243.4C23.1 -235 46.3 -226.6 71.8 -221.1C97.4 -215.6 125.5 -213.1 143.1 -196.9C160.6 -180.7 167.6 -151 175.2 -127.3C182.7 -103.5 190.7 -85.9 202.1 -65.7C213.5 -45.5 228.5 -22.7 243.4 0L0 0Z" fill="#6e94fc"></path><path d="M0 -121.7C11.6 -117.5 23.1 -113.3 35.9 -110.6C48.7 -107.8 62.8 -106.5 71.5 -98.4C80.3 -90.4 83.8 -75.5 87.6 -63.6C91.3 -51.8 95.3 -42.9 101 -32.8C106.8 -22.7 114.2 -11.4 121.7 0L0 0Z" fill="#3c81fa"></path></g></svg>