<svg id="visual" viewBox="0 0 900 600" width="900" height="600" xmlns="http://www.w3.org/2000/svg" xmlns:xlink="http://www.w3.org/1999/xlink" version="1.1"><rect x="0" y="0" width="900" height="600" fill="#ffffff"></rect><g transform="translate(454.6089329315547 285.6828324126676)"><path d="M137.2 -229.5C176.8 -214.8 207 -175.9 229.3 -133.6C251.5 -91.3 265.8 -45.7 263 -1.6C260.3 42.5 240.6 85 218.9 128.3C197.2 171.6 173.6 215.7 136.8 240.6C100 265.5 50 271.3 5.9 261C-38.2 250.8 -76.3 224.5 -117.6 202.2C-158.9 179.9 -203.3 161.4 -232.5 128.4C-261.8 95.3 -275.9 47.7 -271.9 2.3C-267.8 -43 -245.6 -86 -217.7 -121.4C-189.8 -156.7 -156.1 -184.5 -118.9 -200.5C-81.7 -216.5 -40.8 -220.7 4 -227.7C48.8 -234.6 97.7 -244.2 137.2 -229.5" fill="#0060ba"></path></g></svg>